# xmcd
#
# Track frame offsets: 
#        150
#        21807
#        44957
#        60970
#        83097
#        98525
#        120760
#        143227
#        156302
#        173222
#
# Disc length: 2663 seconds
#
# Revision: 9
# Processed by: cddbd v1.5.2PL0 Copyright (c) Steve Scherf et al.
# Submitted via: ExactAudioCopy v1.3
#
DISCID=770a650a
DTITLE=Queen - A Day At The Races
DYEAR=1976
DGENRE=Progressive Rock
TTITLE0=Tie Your Mother Down
TTITLE1=You Take My Breath Away
TTITLE2=Long Away
TTITLE3=The Millionaire Waltz
TTITLE4=You And I
TTITLE5=Somebody To Love
TTITLE6=White Man
TTITLE7=Good Old Fashioned Lover Boy
TTITLE8=Drowse
TTITLE9=Teo Torriatte (Let Us Cling Together)
EXTD=YEAR: 1976
EXTT0=
EXTT1=
EXTT2=
EXTT3=
EXTT4=
EXTT5=
EXTT6=
EXTT7=
EXTT8=
EXTT9=
PLAYORDER=
